<svg width="45" height="45" viewBox="0 0 45 45" fill="none" xmlns="http://www.w3.org/2000/svg">
<circle cx="22.5" cy="22.5" r="22.5" fill="#FFD200"/>
<path d="M21.9676 31.1426C21.9103 31.1426 21.8536 31.1308 21.8011 31.1078C21.7486 31.0848 21.7014 31.0512 21.6626 31.0092L13.4385 22.1131C13.3837 22.0538 13.3473 21.9798 13.3339 21.9001C13.3205 21.8205 13.3306 21.7387 13.3629 21.6647C13.3953 21.5907 13.4485 21.5277 13.5161 21.4835C13.5837 21.4393 13.6627 21.4157 13.7435 21.4157H17.7021C17.7616 21.4157 17.8203 21.4285 17.8744 21.4531C17.9285 21.4778 17.9766 21.5137 18.0156 21.5586L20.7642 24.7207C21.0612 24.0857 21.6362 23.0285 22.6453 21.7402C24.137 19.8357 26.9117 17.0347 31.6589 14.5061C31.7506 14.4573 31.8574 14.4446 31.958 14.4706C32.0587 14.4966 32.1459 14.5594 32.2025 14.6466C32.2591 14.7338 32.281 14.839 32.2638 14.9415C32.2466 15.0441 32.1915 15.1364 32.1096 15.2003C32.0915 15.2145 30.2611 16.6559 28.1546 19.296C26.2159 21.7256 23.6388 25.6983 22.3707 30.8271C22.3484 30.9172 22.2966 30.9973 22.2235 31.0545C22.1504 31.1117 22.0603 31.1428 21.9675 31.1428L21.9676 31.1426Z" fill="#121212"/>
</svg>
