<svg width="200" height="70" viewBox="0 0 200 70" fill="none" xmlns="http://www.w3.org/2000/svg">
<rect width="200" height="70" rx="10" fill="#F0F7FF"/>
<path d="M74.0092 22.0348C73.9131 21.7332 73.7839 21.4631 73.6214 21.2244C73.4624 20.9825 73.2718 20.777 73.0497 20.608C72.8277 20.4356 72.5741 20.3047 72.2891 20.2152C72.0073 20.1257 71.6974 20.081 71.3594 20.081C70.786 20.081 70.2689 20.2285 69.8082 20.5234C69.3475 20.8184 68.983 21.2509 68.7145 21.821C68.4493 22.3878 68.3168 23.0821 68.3168 23.9041C68.3168 24.7294 68.451 25.4271 68.7195 25.9972C68.9879 26.5672 69.3558 26.9998 69.8232 27.2947C70.2905 27.5897 70.8224 27.7372 71.419 27.7372C71.9725 27.7372 72.4548 27.6245 72.8658 27.3991C73.2801 27.1738 73.5999 26.8556 73.8253 26.4446C74.054 26.0303 74.1683 25.5431 74.1683 24.983L74.5661 25.0575H71.6527V23.7898H75.6548V24.9482C75.6548 25.8033 75.4725 26.5457 75.108 27.1754C74.7467 27.8018 74.2462 28.2857 73.6065 28.6271C72.9702 28.9685 72.241 29.1392 71.419 29.1392C70.4976 29.1392 69.6889 28.9271 68.9929 28.5028C68.3002 28.0786 67.7599 27.477 67.3722 26.6982C66.9844 25.916 66.7905 24.9879 66.7905 23.9141C66.7905 23.102 66.9032 22.3729 67.1286 21.7266C67.3539 21.0803 67.6705 20.5317 68.0781 20.081C68.4891 19.6269 68.9714 19.2805 69.5249 19.0419C70.0817 18.8 70.6899 18.679 71.3494 18.679C71.8996 18.679 72.4117 18.7602 72.8857 18.9226C73.3629 19.085 73.7872 19.3153 74.1584 19.6136C74.5329 19.9119 74.8428 20.2666 75.0881 20.6776C75.3333 21.0852 75.4991 21.5376 75.5852 22.0348H74.0092ZM77.6049 29V18.8182H83.9885V20.1406H79.1412V23.2429H83.6554V24.5604H79.1412V27.6776H84.0481V29H77.6049ZM85.5384 20.1406V18.8182H93.4183V20.1406H90.2415V29H88.7102V20.1406H85.5384ZM100.401 18.8182V29H98.8647V18.8182H100.401ZM102.136 20.1406V18.8182H110.016V20.1406H106.839V29H105.308V20.1406H102.136ZM124.307 23.9091C124.307 24.9962 124.108 25.9309 123.71 26.7131C123.313 27.492 122.767 28.0919 122.075 28.5128C121.385 28.9304 120.601 29.1392 119.723 29.1392C118.841 29.1392 118.054 28.9304 117.362 28.5128C116.672 28.0919 116.129 27.4903 115.731 26.7081C115.333 25.9259 115.134 24.9929 115.134 23.9091C115.134 22.822 115.333 21.889 115.731 21.1101C116.129 20.3279 116.672 19.728 117.362 19.3104C118.054 18.8894 118.841 18.679 119.723 18.679C120.601 18.679 121.385 18.8894 122.075 19.3104C122.767 19.728 123.313 20.3279 123.71 21.1101C124.108 21.889 124.307 22.822 124.307 23.9091ZM122.786 23.9091C122.786 23.0805 122.651 22.3828 122.383 21.8161C122.118 21.246 121.753 20.8151 121.289 20.5234C120.828 20.2285 120.306 20.081 119.723 20.081C119.136 20.081 118.613 20.2285 118.152 20.5234C117.691 20.8151 117.327 21.246 117.058 21.8161C116.793 22.3828 116.661 23.0805 116.661 23.9091C116.661 24.7377 116.793 25.437 117.058 26.0071C117.327 26.5739 117.691 27.0047 118.152 27.2997C118.613 27.5914 119.136 27.7372 119.723 27.7372C120.306 27.7372 120.828 27.5914 121.289 27.2997C121.753 27.0047 122.118 26.5739 122.383 26.0071C122.651 25.437 122.786 24.7377 122.786 23.9091ZM134.44 18.8182V29H133.028L127.853 21.5327H127.758V29H126.222V18.8182H127.644L132.824 26.2955H132.919V18.8182H134.44Z" fill="#121212"/>
<path d="M76.0611 43.0895C75.9545 42.7443 75.8075 42.4354 75.62 42.1626C75.4368 41.8857 75.2152 41.6491 74.9553 41.4531C74.6996 41.2571 74.4055 41.1101 74.0732 41.0121C73.7408 40.9098 73.3786 40.8587 72.9865 40.8587C72.2834 40.8587 71.657 41.0355 71.1072 41.3892C70.5575 41.7429 70.125 42.2628 69.8097 42.9489C69.4986 43.6307 69.343 44.4616 69.343 45.4418C69.343 46.4304 69.4986 47.2678 69.8097 47.9538C70.1207 48.6399 70.5533 49.1619 71.1072 49.5199C71.6612 49.8736 72.3047 50.0504 73.0376 50.0504C73.7024 50.0504 74.2777 49.9226 74.7635 49.6669C75.2536 49.4112 75.6307 49.049 75.8949 48.5803C76.1591 48.1072 76.2912 47.5533 76.2912 46.9183L76.8281 47.0014H73.2741V45.1477H78.5859V46.7202C78.5859 47.8409 78.3473 48.8104 77.87 49.6286C77.3928 50.4467 76.7365 51.0774 75.9013 51.5206C75.0661 51.9595 74.1072 52.179 73.0249 52.179C71.8189 52.179 70.7599 51.9084 69.848 51.3672C68.9403 50.8217 68.2308 50.0483 67.7195 49.0469C67.2124 48.0412 66.9588 46.848 66.9588 45.4673C66.9588 44.4105 67.108 43.4666 67.4062 42.6357C67.7088 41.8047 68.1307 41.0994 68.6719 40.5199C69.2131 39.9361 69.848 39.4929 70.5767 39.1903C71.3054 38.8835 72.098 38.7301 72.9545 38.7301C73.679 38.7301 74.3544 38.8366 74.9808 39.0497C75.6072 39.2585 76.1634 39.5568 76.6491 39.9446C77.1392 40.3324 77.5419 40.7926 77.8572 41.3253C78.1726 41.858 78.3793 42.446 78.4773 43.0895H76.0611ZM85.0595 52.1918C84.1007 52.1918 83.2697 51.9808 82.5666 51.5589C81.8635 51.1371 81.318 50.5469 80.9302 49.7884C80.5467 49.0298 80.3549 48.1435 80.3549 47.1293C80.3549 46.1151 80.5467 45.2266 80.9302 44.4638C81.318 43.701 81.8635 43.1087 82.5666 42.6868C83.2697 42.2649 84.1007 42.054 85.0595 42.054C86.0183 42.054 86.8493 42.2649 87.5524 42.6868C88.2555 43.1087 88.7988 43.701 89.1824 44.4638C89.5701 45.2266 89.764 46.1151 89.764 47.1293C89.764 48.1435 89.5701 49.0298 89.1824 49.7884C88.7988 50.5469 88.2555 51.1371 87.5524 51.5589C86.8493 51.9808 86.0183 52.1918 85.0595 52.1918ZM85.0723 50.3381C85.5922 50.3381 86.0268 50.1953 86.3762 49.9098C86.7257 49.62 86.9856 49.2322 87.1561 48.7464C87.3308 48.2607 87.4181 47.7195 87.4181 47.1229C87.4181 46.522 87.3308 45.9787 87.1561 45.4929C86.9856 45.0028 86.7257 44.6129 86.3762 44.3232C86.0268 44.0334 85.5922 43.8885 85.0723 43.8885C84.5396 43.8885 84.0964 44.0334 83.7427 44.3232C83.3933 44.6129 83.1312 45.0028 82.9565 45.4929C82.786 45.9787 82.7008 46.522 82.7008 47.1229C82.7008 47.7195 82.786 48.2607 82.9565 48.7464C83.1312 49.2322 83.3933 49.62 83.7427 49.9098C84.0964 50.1953 84.5396 50.3381 85.0723 50.3381ZM96.0107 52.1918C95.0518 52.1918 94.2209 51.9808 93.5178 51.5589C92.8146 51.1371 92.2692 50.5469 91.8814 49.7884C91.4979 49.0298 91.3061 48.1435 91.3061 47.1293C91.3061 46.1151 91.4979 45.2266 91.8814 44.4638C92.2692 43.701 92.8146 43.1087 93.5178 42.6868C94.2209 42.2649 95.0518 42.054 96.0107 42.054C96.9695 42.054 97.8004 42.2649 98.5036 42.6868C99.2067 43.1087 99.75 43.701 100.134 44.4638C100.521 45.2266 100.715 46.1151 100.715 47.1293C100.715 48.1435 100.521 49.0298 100.134 49.7884C99.75 50.5469 99.2067 51.1371 98.5036 51.5589C97.8004 51.9808 96.9695 52.1918 96.0107 52.1918ZM96.0234 50.3381C96.5433 50.3381 96.978 50.1953 97.3274 49.9098C97.6768 49.62 97.9368 49.2322 98.1072 48.7464C98.282 48.2607 98.3693 47.7195 98.3693 47.1229C98.3693 46.522 98.282 45.9787 98.1072 45.4929C97.9368 45.0028 97.6768 44.6129 97.3274 44.3232C96.978 44.0334 96.5433 43.8885 96.0234 43.8885C95.4908 43.8885 95.0476 44.0334 94.6939 44.3232C94.3445 44.6129 94.0824 45.0028 93.9077 45.4929C93.7372 45.9787 93.652 46.522 93.652 47.1229C93.652 47.7195 93.7372 48.2607 93.9077 48.7464C94.0824 49.2322 94.3445 49.62 94.6939 49.9098C95.0476 50.1953 95.4908 50.3381 96.0234 50.3381ZM106.949 55.8864C106.118 55.8864 105.404 55.7734 104.808 55.5476C104.211 55.326 103.732 55.0277 103.369 54.6527C103.007 54.2777 102.756 53.8622 102.615 53.4062L104.699 52.9013C104.793 53.093 104.929 53.2827 105.108 53.4702C105.287 53.6619 105.528 53.8196 105.83 53.9432C106.137 54.071 106.523 54.1349 106.987 54.1349C107.644 54.1349 108.187 53.9751 108.617 53.6555C109.048 53.3402 109.263 52.8203 109.263 52.0959V50.2358H109.148C109.029 50.4744 108.854 50.7195 108.624 50.9709C108.398 51.2223 108.097 51.4332 107.722 51.6037C107.352 51.7741 106.885 51.8594 106.323 51.8594C105.568 51.8594 104.884 51.6825 104.271 51.3288C103.661 50.9709 103.176 50.4382 102.813 49.7308C102.455 49.0192 102.276 48.1286 102.276 47.0589C102.276 45.9808 102.455 45.071 102.813 44.3295C103.176 43.5838 103.664 43.0192 104.277 42.6357C104.891 42.2479 105.575 42.054 106.329 42.054C106.904 42.054 107.377 42.152 107.748 42.348C108.123 42.5398 108.421 42.772 108.643 43.0447C108.865 43.3132 109.033 43.5668 109.148 43.8054H109.276V42.1818H111.558V52.1598C111.558 52.9993 111.357 53.6939 110.957 54.2436C110.556 54.7933 110.009 55.2045 109.314 55.4773C108.619 55.75 107.831 55.8864 106.949 55.8864ZM106.968 50.044C107.458 50.044 107.876 49.9247 108.221 49.6861C108.566 49.4474 108.828 49.1044 109.007 48.657C109.186 48.2095 109.276 47.6726 109.276 47.0462C109.276 46.4283 109.186 45.8871 109.007 45.4226C108.833 44.9581 108.573 44.598 108.227 44.3423C107.887 44.0824 107.467 43.9524 106.968 43.9524C106.453 43.9524 106.022 44.0866 105.677 44.3551C105.332 44.6236 105.072 44.9922 104.897 45.4609C104.722 45.9254 104.635 46.4538 104.635 47.0462C104.635 47.647 104.722 48.1733 104.897 48.625C105.076 49.0724 105.338 49.4219 105.683 49.6733C106.033 49.9205 106.461 50.044 106.968 50.044ZM116.243 38.9091V52H113.929V38.9091H116.243ZM122.969 52.1918C121.985 52.1918 121.135 51.9872 120.419 51.5781C119.707 51.1648 119.159 50.581 118.776 49.8267C118.392 49.0682 118.201 48.1754 118.201 47.1484C118.201 46.1385 118.392 45.2521 118.776 44.4893C119.164 43.7223 119.705 43.1257 120.4 42.6996C121.094 42.2692 121.91 42.054 122.848 42.054C123.453 42.054 124.024 42.152 124.561 42.348C125.102 42.5398 125.579 42.8381 125.993 43.2429C126.41 43.6477 126.738 44.1634 126.977 44.7898C127.216 45.4119 127.335 46.1534 127.335 47.0142V47.7237H119.287V46.1641H125.117C125.113 45.7209 125.017 45.3267 124.829 44.9815C124.642 44.6321 124.38 44.3572 124.043 44.157C123.711 43.9567 123.323 43.8565 122.88 43.8565C122.407 43.8565 121.991 43.9716 121.633 44.2017C121.275 44.4276 120.996 44.7259 120.796 45.0966C120.6 45.4631 120.5 45.8658 120.495 46.3047V47.6662C120.495 48.2372 120.6 48.7273 120.809 49.1364C121.017 49.5412 121.309 49.8523 121.684 50.0696C122.059 50.2827 122.498 50.3892 123.001 50.3892C123.338 50.3892 123.642 50.3423 123.915 50.2486C124.188 50.1506 124.424 50.0078 124.625 49.8203C124.825 49.6328 124.976 49.4006 125.078 49.1236L127.239 49.3665C127.103 49.9375 126.843 50.4361 126.459 50.8622C126.08 51.2841 125.594 51.6122 125.002 51.8466C124.409 52.0767 123.732 52.1918 122.969 52.1918ZM133.86 52V38.9091H138.769C139.774 38.9091 140.618 39.0966 141.3 39.4716C141.986 39.8466 142.504 40.3622 142.853 41.0185C143.207 41.6705 143.384 42.4119 143.384 43.2429C143.384 44.0824 143.207 44.8281 142.853 45.4801C142.499 46.1321 141.977 46.6456 141.287 47.0206C140.597 47.3913 139.747 47.5767 138.737 47.5767H135.483V45.6271H138.417C139.005 45.6271 139.487 45.5249 139.862 45.3203C140.237 45.1158 140.514 44.8345 140.693 44.4766C140.876 44.1186 140.968 43.7074 140.968 43.2429C140.968 42.7784 140.876 42.3693 140.693 42.0156C140.514 41.6619 140.235 41.3871 139.855 41.1911C139.48 40.9908 138.997 40.8906 138.404 40.8906H136.231V52H133.86ZM147.655 38.9091V52H145.341V38.9091H147.655ZM152.86 52.1982C152.238 52.1982 151.677 52.0874 151.179 51.8658C150.684 51.6399 150.292 51.3075 150.003 50.8686C149.717 50.4297 149.574 49.8885 149.574 49.245C149.574 48.6911 149.677 48.233 149.881 47.8707C150.086 47.5085 150.365 47.2188 150.719 47.0014C151.072 46.7841 151.471 46.62 151.914 46.5092C152.361 46.3942 152.824 46.3111 153.301 46.2599C153.876 46.2003 154.343 46.147 154.701 46.1001C155.059 46.049 155.319 45.9723 155.481 45.87C155.647 45.7635 155.73 45.5994 155.73 45.3778V45.3395C155.73 44.858 155.587 44.4851 155.302 44.2209C155.016 43.9567 154.605 43.8246 154.068 43.8246C153.501 43.8246 153.052 43.9482 152.719 44.1953C152.391 44.4425 152.17 44.7344 152.055 45.071L149.894 44.7642C150.064 44.1676 150.346 43.669 150.738 43.2685C151.13 42.8636 151.609 42.5611 152.176 42.3608C152.743 42.1562 153.369 42.054 154.055 42.054C154.528 42.054 154.999 42.1094 155.468 42.2202C155.937 42.331 156.365 42.5142 156.753 42.7699C157.14 43.0213 157.452 43.3643 157.686 43.799C157.925 44.2337 158.044 44.777 158.044 45.429V52H155.819V50.6513H155.743C155.602 50.924 155.404 51.1797 155.148 51.4183C154.897 51.6527 154.579 51.8423 154.196 51.9872C153.817 52.1278 153.371 52.1982 152.86 52.1982ZM153.461 50.4979C153.925 50.4979 154.328 50.4062 154.669 50.223C155.01 50.0355 155.272 49.7884 155.455 49.4815C155.643 49.1747 155.736 48.8402 155.736 48.478V47.321C155.664 47.3807 155.54 47.4361 155.366 47.4872C155.195 47.5384 155.003 47.5831 154.79 47.6214C154.577 47.6598 154.366 47.6939 154.157 47.7237C153.949 47.7536 153.768 47.7791 153.614 47.8004C153.269 47.8473 152.96 47.924 152.687 48.0305C152.415 48.1371 152.199 48.2862 152.042 48.478C151.884 48.6655 151.805 48.9084 151.805 49.2067C151.805 49.6328 151.961 49.9545 152.272 50.1719C152.583 50.3892 152.979 50.4979 153.461 50.4979ZM161.457 55.6818C161.142 55.6818 160.85 55.6563 160.581 55.6051C160.317 55.5582 160.106 55.5028 159.949 55.4389L160.486 53.6364C160.822 53.7344 161.123 53.7813 161.387 53.777C161.651 53.7727 161.883 53.6896 162.084 53.5277C162.288 53.37 162.461 53.1058 162.601 52.7351L162.8 52.2045L159.239 42.1818H161.694L163.956 49.5966H164.059L166.328 42.1818H168.789L164.858 53.1889C164.675 53.7088 164.432 54.1541 164.129 54.5249C163.827 54.8999 163.456 55.1854 163.017 55.3814C162.582 55.5817 162.062 55.6818 161.457 55.6818Z" fill="#121212"/>
<path d="M49.6167 31.9611L43.6555 28.5181L37.5527 34.6209L43.6551 40.7232L49.6369 37.2688C50.5697 36.7021 51.1263 35.7121 51.1263 34.6209C51.1263 33.5297 50.5693 32.5397 49.6167 31.9611Z" fill="#FFCE00"/>
<path d="M37.552 34.6209L20.9293 17.8784C20.3511 18.4566 20 19.2411 20 20.1083V49.0823C20 49.9496 20.3511 50.7341 20.9293 51.3127L37.552 34.6209Z" fill="url(#paint0_linear_13938_1230)"/>
<path d="M37.5524 34.6208L43.6552 28.518L43.6649 28.5083L35.488 23.8003L24.7088 17.4652C23.7382 16.8664 22.5612 16.8457 21.5699 17.4032C21.3428 17.5475 21.136 17.6922 20.9297 17.8779L37.5524 34.6208Z" fill="#00F076"/>
<path d="M20.9297 51.312C21.136 51.4977 21.3428 51.6424 21.5699 51.7868C22.0653 52.0552 22.5819 52.1999 23.098 52.1999C23.6555 52.1999 24.1923 52.0349 24.6882 51.7458L35.4875 45.4411L43.6645 40.7331L43.6548 40.7234L37.5524 34.6206L20.9297 51.312Z" fill="#F63448"/>
<defs>
<linearGradient id="paint0_linear_13938_1230" x1="12.571" y1="42.954" x2="29.288" y2="26.2367" gradientUnits="userSpaceOnUse">
<stop stop-color="#00E2FF"/>
<stop offset="1" stop-color="#00C5FF"/>
</linearGradient>
</defs>
</svg>
