<svg width="17" height="14" viewBox="0 0 17 14" fill="none" xmlns="http://www.w3.org/2000/svg">
<path d="M16.6667 2.9458V10.8333C16.6667 11.471 16.4231 12.0846 15.9856 12.5485C15.5481 13.0125 14.9499 13.2917 14.3133 13.3291L14.1667 13.3333H2.5C1.86232 13.3333 1.24874 13.0897 0.784783 12.6522C0.320828 12.2148 0.0415771 11.6165 0.00416676 10.98L0 10.8333V2.9458L7.87083 8.1933L7.9675 8.2483C8.08142 8.30396 8.20654 8.33289 8.33333 8.33289C8.46012 8.33289 8.58525 8.30396 8.69917 8.2483L8.79583 8.1933L16.6667 2.9458Z" fill="#104042"/>
<path d="M14.1669 0C15.0669 0 15.8561 0.475 16.2961 1.18917L8.33359 6.4975L0.371094 1.18917C0.580035 0.849806 0.867105 0.565334 1.20835 0.359486C1.5496 0.153637 1.93512 0.0323802 2.33276 0.00583331L2.50026 0H14.1669Z" fill="#104042"/>
</svg>
