<svg width="23" height="23" viewBox="0 0 23 23" fill="none" xmlns="http://www.w3.org/2000/svg">
<path fill-rule="evenodd" clip-rule="evenodd" d="M10.0748 14.4269C10.0748 13.8161 9.83229 13.2307 9.40029 12.7994C8.96905 12.3674 8.38359 12.1249 7.7728 12.1249C6.24891 12.1249 3.92546 12.1249 2.40157 12.1249C1.79078 12.1249 1.20531 12.3674 0.774081 12.7994C0.342081 13.2307 0.0996094 13.8161 0.0996094 14.4269V19.7981C0.0996094 20.4089 0.342081 20.9944 0.774081 21.4256C1.20531 21.8576 1.79078 22.1001 2.40157 22.1001H7.7728C8.38359 22.1001 8.96905 21.8576 9.40029 21.4256C9.83229 20.9944 10.0748 20.4089 10.0748 19.7981V14.4269ZM21.5845 14.4269C21.5845 13.8161 21.3421 13.2307 20.9101 12.7994C20.4788 12.3674 19.8934 12.1249 19.2826 12.1249C17.7587 12.1249 15.4353 12.1249 13.9114 12.1249C13.3006 12.1249 12.7151 12.3674 12.2839 12.7994C11.8519 13.2307 11.6094 13.8161 11.6094 14.4269V19.7981C11.6094 20.4089 11.8519 20.9944 12.2839 21.4256C12.7151 21.8576 13.3006 22.1001 13.9114 22.1001H19.2826C19.8934 22.1001 20.4788 21.8576 20.9101 21.4256C21.3421 20.9944 21.5845 20.4089 21.5845 19.7981V14.4269ZM8.54012 14.4269V19.7981C8.54012 20.0015 8.45955 20.1971 8.3153 20.3406C8.17181 20.4849 7.97614 20.5655 7.7728 20.5655H2.40157C2.19823 20.5655 2.00256 20.4849 1.85907 20.3406C1.71482 20.1971 1.63425 20.0015 1.63425 19.7981V14.4269C1.63425 14.2236 1.71482 14.0279 1.85907 13.8844C2.00256 13.7402 2.19823 13.6596 2.40157 13.6596H7.7728C7.97614 13.6596 8.17181 13.7402 8.3153 13.8844C8.45955 14.0279 8.54012 14.2236 8.54012 14.4269ZM20.0499 14.4269V19.7981C20.0499 20.0015 19.9693 20.1971 19.8251 20.3406C19.6816 20.4849 19.4859 20.5655 19.2826 20.5655H13.9114C13.708 20.5655 13.5123 20.4849 13.3689 20.3406C13.2246 20.1971 13.144 20.0015 13.144 19.7981V14.4269C13.144 14.2236 13.2246 14.0279 13.3689 13.8844C13.5123 13.7402 13.708 13.6596 13.9114 13.6596H19.2826C19.4859 13.6596 19.6816 13.7402 19.8251 13.8844C19.9693 14.0279 20.0499 14.2236 20.0499 14.4269ZM18.2245 10.4315L21.4257 7.23022C22.3242 6.33169 22.3242 4.87378 21.4257 3.97525L18.2245 0.773996C17.3259 -0.124535 15.868 -0.124535 14.9695 0.773996L11.7682 3.97525C10.8697 4.87378 10.8697 6.33169 11.7682 7.23022L14.9695 10.4315C15.868 11.33 17.3259 11.33 18.2245 10.4315ZM10.0748 2.91712C10.0748 2.30633 9.83229 1.72087 9.40029 1.28963C8.96905 0.857631 8.38359 0.61516 7.7728 0.61516C6.24891 0.61516 3.92546 0.61516 2.40157 0.61516C1.79078 0.61516 1.20531 0.857631 0.774081 1.28963C0.342081 1.72087 0.0996094 2.30633 0.0996094 2.91712V8.28835C0.0996094 8.89914 0.342081 9.4846 0.774081 9.91584C1.20531 10.3478 1.79078 10.5903 2.40157 10.5903H7.7728C8.38359 10.5903 8.96905 10.3478 9.40029 9.91584C9.83229 9.4846 10.0748 8.89914 10.0748 8.28835V2.91712ZM20.3407 6.14523L17.1395 9.34648C16.8402 9.64574 16.3537 9.64574 16.0545 9.34648L12.8532 6.14523C12.554 5.84598 12.554 5.35949 12.8532 5.06024L16.0545 1.85899C16.3537 1.55973 16.8402 1.55973 17.1395 1.85899L20.3407 5.06024C20.64 5.35949 20.64 5.84598 20.3407 6.14523ZM8.54012 2.91712V8.28835C8.54012 8.49169 8.45955 8.68736 8.3153 8.83085C8.17181 8.9751 7.97614 9.05567 7.7728 9.05567H2.40157C2.19823 9.05567 2.00256 8.9751 1.85907 8.83085C1.71482 8.68736 1.63425 8.49169 1.63425 8.28835V2.91712C1.63425 2.71378 1.71482 2.51811 1.85907 2.37462C2.00256 2.23037 2.19823 2.1498 2.40157 2.1498H7.7728C7.97614 2.1498 8.17181 2.23037 8.3153 2.37462C8.45955 2.51811 8.54012 2.71378 8.54012 2.91712Z" fill="#121212" stroke="#121212" stroke-width="0.2"/>
</svg>
