<svg width="67" height="50" viewBox="0 0 67 50" fill="none" xmlns="http://www.w3.org/2000/svg">
<path d="M5 0.5H20C22.4853 0.5 24.5 2.51472 24.5 5V22.9287C24.5 24.1222 24.0256 25.2674 23.1816 26.1113L8.18164 41.1113C5.34675 43.9457 0.5 41.9376 0.5 37.9287V5C0.5 2.51472 2.51472 0.5 5 0.5Z" stroke="#104042"/>
<path d="M46.666 0.5H61.666C64.1513 0.5 66.166 2.51472 66.166 5V22.9287C66.166 24.1222 65.6916 25.2674 64.8477 26.1113L49.8477 41.1113C47.0128 43.9457 42.166 41.9376 42.166 37.9287V5C42.166 2.51472 44.1807 0.5 46.666 0.5Z" stroke="#104042"/>
</svg>
