<svg width="303" height="13" viewBox="0 0 303 13" fill="none" xmlns="http://www.w3.org/2000/svg">
<path d="M1.5 10.088C1.63838 9.56117 3.05176 9.15831 4.04296 8.91056C9.45456 7.55791 15.9874 6.96676 21.7749 5.97429C31.1515 4.36634 41.055 1.82317 51.3625 1.51174C57.6671 1.32125 53.9543 3.54456 51.7749 4.75327C48.8526 6.37398 43.848 7.85633 41.9811 9.76819C40.7309 11.0486 49.6616 9.77692 50.1598 9.71004C60.0156 8.38695 69.578 6.59231 79.232 5.02945C80.1698 4.87763 88.0405 3.31008 86.5859 4.97131C85.2371 6.51181 81.3789 7.53562 78.6478 8.60531C74.5689 10.2029 83.3238 8.65546 84.3179 8.47448C92.914 6.90956 101.039 4.72624 109.919 3.4741C111.112 3.30595 120.817 1.91716 120.091 3.50317C119.069 5.73607 114.064 7.30856 111.741 9.27396C109.247 11.3832 116.404 10.4825 118.854 10.1461C127.593 8.94599 135.732 7.13085 144.627 6.06151C148.385 5.60979 152.201 5.24788 156.002 4.86955C157.14 4.75627 160.61 4.16963 161.809 4.52069C163.74 5.08619 155.402 7.68731 154.696 7.93665C153.76 8.26714 146.394 11.0293 151.466 10.8148C159.078 10.4928 166.811 8.53918 173.94 7.4715C182.031 6.25967 190.082 4.81373 198.545 4.12822C199.602 4.04254 206.723 3.28094 206.723 4.37533C206.723 5.83266 203.391 7.17187 203.184 8.75067C202.99 10.2229 204.544 10.7016 207.995 10.2769C214.852 9.43318 221.739 8.14227 228.442 7.07903C233.199 6.32438 237.941 5.59599 242.806 4.97131C245.832 4.58268 239.598 7.44675 239.026 7.675C238.44 7.90853 230.181 11.2479 234.009 11.4834C236.531 11.6386 239.85 10.6799 241.912 10.2333C246.196 9.30588 250.452 8.37308 254.833 7.52964C260.418 6.45467 266.747 4.92994 273.115 5.17481C276.74 5.31421 276.35 6.50719 274.765 7.52964C271.636 9.54771 274.818 8.84197 278.545 8.14015C286.276 6.68441 293.86 5.08561 301.5 3.54678" stroke="#FFD200" stroke-width="3" stroke-linecap="round" stroke-linejoin="round"/>
</svg>
