<svg width="22" height="22" viewBox="0 0 22 22" fill="none" xmlns="http://www.w3.org/2000/svg">
<g clip-path="url(#clip0_13703_163)">
<path d="M22 20.7039L16.2599 14.9637C17.7509 13.1401 18.4841 10.8131 18.3076 8.46414C18.1311 6.11516 17.0585 3.92386 15.3117 2.34352C13.5648 0.763179 11.2774 -0.0853045 8.92255 -0.0264253C6.56768 0.0324538 4.32552 0.994191 2.65986 2.65986C0.994191 4.32552 0.0324538 6.56768 -0.0264253 8.92255C-0.0853045 11.2774 0.763179 13.5648 2.34352 15.3117C3.92386 17.0585 6.11516 18.1311 8.46414 18.3076C10.8131 18.4841 13.1401 17.7509 14.9637 16.2599L20.7039 22L22 20.7039ZM9.16671 16.5C7.71631 16.5 6.29849 16.07 5.09253 15.2642C3.88657 14.4584 2.94664 13.313 2.39159 11.9731C1.83655 10.6331 1.69133 9.15858 1.97429 7.73605C2.25724 6.31352 2.95568 5.00685 3.98126 3.98126C5.00685 2.95568 6.31352 2.25724 7.73605 1.97429C9.15858 1.69133 10.6331 1.83655 11.9731 2.39159C13.313 2.94664 14.4584 3.88657 15.2642 5.09253C16.07 6.29849 16.5 7.71631 16.5 9.16671C16.4979 11.111 15.7245 12.975 14.3497 14.3497C12.975 15.7245 11.111 16.4979 9.16671 16.5Z" fill="#121212"/>
</g>
<defs>
<clipPath id="clip0_13703_163">
<rect width="22" height="22" fill="white"/>
</clipPath>
</defs>
</svg>
