<svg width="16" height="16" viewBox="0 0 16 16" fill="none" xmlns="http://www.w3.org/2000/svg">
<path d="M5.83333 3.25335e-08C5.98274 -4.17081e-05 6.1294 0.0400824 6.25798 0.116171C6.38655 0.192261 6.4923 0.301516 6.56417 0.4325L6.60667 0.524167L8.27333 4.69083C8.34046 4.85847 8.35132 5.04337 8.30428 5.21771C8.25724 5.39205 8.15484 5.54639 8.0125 5.6575L7.92917 5.71417L6.53417 6.55083L6.58667 6.63667C7.25063 7.69083 8.14251 8.5827 9.19667 9.24667L9.28167 9.29833L10.1192 7.905C10.212 7.75007 10.3526 7.62948 10.5199 7.5614C10.6872 7.49332 10.872 7.48142 11.0467 7.5275L11.1425 7.56L15.3092 9.22667C15.4479 9.28202 15.5692 9.37364 15.6604 9.49195C15.7516 9.61026 15.8093 9.75091 15.8275 9.89917L15.8333 10V13.3333C15.8333 14.7142 14.7142 15.8333 13.2833 15.8317C6.13417 15.3975 0.435 9.69833 3.88371e-09 2.5C-3.55181e-05 1.86232 0.243604 1.24874 0.68107 0.784783C1.11854 0.320828 1.71676 0.0415771 2.35333 0.00416679L2.5 3.25335e-08H5.83333Z" fill="#104042"/>
</svg>
