<svg width="17" height="19" viewBox="0 0 17 19" fill="none" xmlns="http://www.w3.org/2000/svg">
<path d="M14.2502 2.44495C15.7828 3.97732 16.6593 6.04564 16.6944 8.21257C16.7296 10.3795 15.9206 12.4751 14.4385 14.0564L14.2502 14.2512L10.3148 18.1856C9.81549 18.6847 9.14513 18.9752 8.43956 18.9985C7.73399 19.0217 7.04596 18.7759 6.51485 18.3109L6.38129 18.1856L2.44495 14.2502C0.879477 12.6848 0 10.5615 0 8.3476C0 6.13368 0.879477 4.01043 2.44495 2.44495C4.01043 0.879477 6.13368 0 8.3476 0C10.5615 0 12.6848 0.879477 14.2502 2.44495ZM8.3476 5.56508C7.98219 5.56508 7.62037 5.63705 7.28277 5.77689C6.94518 5.91672 6.63844 6.12168 6.38006 6.38006C6.12168 6.63844 5.91672 6.94518 5.77689 7.28277C5.63705 7.62037 5.56508 7.98219 5.56508 8.3476C5.56508 8.713 5.63705 9.07483 5.77689 9.41242C5.91672 9.75001 6.12168 10.0568 6.38006 10.3151C6.63844 10.5735 6.94518 10.7785 7.28277 10.9183C7.62037 11.0581 7.98219 11.1301 8.3476 11.1301C9.08557 11.1301 9.79331 10.837 10.3151 10.3151C10.837 9.79331 11.1301 9.08557 11.1301 8.3476C11.1301 7.60963 10.837 6.90188 10.3151 6.38006C9.79331 5.85824 9.08557 5.56508 8.3476 5.56508Z" fill="#104042"/>
</svg>
