<svg width="28" height="28" viewBox="0 0 28 28" fill="none" xmlns="http://www.w3.org/2000/svg">
<g clip-path="url(#clip0_11711_491)">
<path d="M14 0C6.28017 0 0 6.28017 0 14C0 21.7198 6.28017 28 14 28C21.7198 28 28 21.7198 28 14C28 6.28017 21.7198 0 14 0ZM14 24.5C8.20983 24.5 3.5 19.789 3.5 14C3.5 8.211 8.20983 3.5 14 3.5C19.7902 3.5 24.5 8.211 24.5 14C24.5 19.789 19.7902 24.5 14 24.5ZM10.5 8.75L19.8333 14L10.5 19.25V8.75Z" fill="#104042"/>
</g>
<defs>
<clipPath id="clip0_11711_491">
<rect width="28" height="28" fill="white"/>
</clipPath>
</defs>
</svg>
