<svg width="206" height="70" viewBox="0 0 206 70" fill="none" xmlns="http://www.w3.org/2000/svg">
<rect width="206" height="70" rx="10" fill="#F0F7FF"/>
<path d="M73.4148 29H70.1186V18.8182H73.5192C74.5168 18.8182 75.3736 19.022 76.0895 19.4297C76.8054 19.834 77.3539 20.4157 77.7351 21.1747C78.1196 21.9304 78.3118 22.8369 78.3118 23.8942C78.3118 24.9548 78.1179 25.8662 77.7301 26.6286C77.3456 27.3909 76.7888 27.9775 76.0597 28.3885C75.3305 28.7962 74.4489 29 73.4148 29ZM71.6548 27.6577H73.3303C74.1058 27.6577 74.7505 27.5118 75.2642 27.2202C75.7779 26.9252 76.1624 26.4993 76.4176 25.9425C76.6728 25.3823 76.8004 24.6996 76.8004 23.8942C76.8004 23.0954 76.6728 22.4176 76.4176 21.8608C76.1657 21.304 75.7895 20.8814 75.2891 20.593C74.7886 20.3047 74.1671 20.1605 73.4247 20.1605H71.6548V27.6577ZM89.0666 23.9091C89.0666 24.9962 88.8677 25.9309 88.47 26.7131C88.0723 27.492 87.527 28.0919 86.8343 28.5128C86.1449 28.9304 85.3611 29.1392 84.4828 29.1392C83.6011 29.1392 82.814 28.9304 82.1213 28.5128C81.4319 28.0919 80.8883 27.4903 80.4906 26.7081C80.0929 25.9259 79.894 24.9929 79.894 23.9091C79.894 22.822 80.0929 21.889 80.4906 21.1101C80.8883 20.3279 81.4319 19.728 82.1213 19.3104C82.814 18.8894 83.6011 18.679 84.4828 18.679C85.3611 18.679 86.1449 18.8894 86.8343 19.3104C87.527 19.728 88.0723 20.3279 88.47 21.1101C88.8677 21.889 89.0666 22.822 89.0666 23.9091ZM87.5453 23.9091C87.5453 23.0805 87.411 22.3828 87.1426 21.8161C86.8774 21.246 86.5128 20.8151 86.0488 20.5234C85.5881 20.2285 85.0661 20.081 84.4828 20.081C83.8961 20.081 83.3725 20.2285 82.9118 20.5234C82.4511 20.8151 82.0865 21.246 81.818 21.8161C81.5529 22.3828 81.4203 23.0805 81.4203 23.9091C81.4203 24.7377 81.5529 25.437 81.818 26.0071C82.0865 26.5739 82.4511 27.0047 82.9118 27.2997C83.3725 27.5914 83.8961 27.7372 84.4828 27.7372C85.0661 27.7372 85.5881 27.5914 86.0488 27.2997C86.5128 27.0047 86.8774 26.5739 87.1426 26.0071C87.411 25.437 87.5453 24.7377 87.5453 23.9091ZM92.8525 29L90.0286 18.8182H91.6444L93.628 26.7031H93.7225L95.7857 18.8182H97.3865L99.4498 26.7081H99.5442L101.523 18.8182H103.144L100.315 29H98.7686L96.6259 21.3736H96.5463L94.4036 29H92.8525ZM112.762 18.8182V29H111.35L106.175 21.5327H106.081V29H104.544V18.8182H105.966L111.147 26.2955H111.241V18.8182H112.762ZM115.003 29V18.8182H116.54V27.6776H121.153V29H115.003ZM131.354 23.9091C131.354 24.9962 131.155 25.9309 130.757 26.7131C130.359 27.492 129.814 28.0919 129.121 28.5128C128.432 28.9304 127.648 29.1392 126.77 29.1392C125.888 29.1392 125.101 28.9304 124.408 28.5128C123.719 28.0919 123.175 27.4903 122.778 26.7081C122.38 25.9259 122.181 24.9929 122.181 23.9091C122.181 22.822 122.38 21.889 122.778 21.1101C123.175 20.3279 123.719 19.728 124.408 19.3104C125.101 18.8894 125.888 18.679 126.77 18.679C127.648 18.679 128.432 18.8894 129.121 19.3104C129.814 19.728 130.359 20.3279 130.757 21.1101C131.155 21.889 131.354 22.822 131.354 23.9091ZM129.832 23.9091C129.832 23.0805 129.698 22.3828 129.43 21.8161C129.165 21.246 128.8 20.8151 128.336 20.5234C127.875 20.2285 127.353 20.081 126.77 20.081C126.183 20.081 125.66 20.2285 125.199 20.5234C124.738 20.8151 124.374 21.246 124.105 21.8161C123.84 22.3828 123.707 23.0805 123.707 23.9091C123.707 24.7377 123.84 25.437 124.105 26.0071C124.374 26.5739 124.738 27.0047 125.199 27.2997C125.66 27.5914 126.183 27.7372 126.77 27.7372C127.353 27.7372 127.875 27.5914 128.336 27.2997C128.8 27.0047 129.165 26.5739 129.43 26.0071C129.698 25.437 129.832 24.7377 129.832 23.9091ZM133.623 29H131.993L135.657 18.8182H137.431L141.096 29H139.465L136.586 20.6676H136.507L133.623 29ZM133.897 25.0128H139.186V26.3054H133.897V25.0128ZM145.862 29H142.566V18.8182H145.966C146.964 18.8182 147.821 19.022 148.537 19.4297C149.253 19.834 149.801 20.4157 150.182 21.1747C150.567 21.9304 150.759 22.8369 150.759 23.8942C150.759 24.9548 150.565 25.8662 150.177 26.6286C149.793 27.3909 149.236 27.9775 148.507 28.3885C147.778 28.7962 146.896 29 145.862 29ZM144.102 27.6577H145.778C146.553 27.6577 147.198 27.5118 147.711 27.2202C148.225 26.9252 148.61 26.4993 148.865 25.9425C149.12 25.3823 149.248 24.6996 149.248 23.8942C149.248 23.0954 149.12 22.4176 148.865 21.8608C148.613 21.304 148.237 20.8814 147.736 20.593C147.236 20.3047 146.614 20.1605 145.872 20.1605H144.102V27.6577ZM165.219 23.9091C165.219 24.9962 165.02 25.9309 164.622 26.7131C164.225 27.492 163.679 28.0919 162.987 28.5128C162.297 28.9304 161.513 29.1392 160.635 29.1392C159.753 29.1392 158.966 28.9304 158.274 28.5128C157.584 28.0919 157.041 27.4903 156.643 26.7081C156.245 25.9259 156.046 24.9929 156.046 23.9091C156.046 22.822 156.245 21.889 156.643 21.1101C157.041 20.3279 157.584 19.728 158.274 19.3104C158.966 18.8894 159.753 18.679 160.635 18.679C161.513 18.679 162.297 18.8894 162.987 19.3104C163.679 19.728 164.225 20.3279 164.622 21.1101C165.02 21.889 165.219 22.822 165.219 23.9091ZM163.698 23.9091C163.698 23.0805 163.563 22.3828 163.295 21.8161C163.03 21.246 162.665 20.8151 162.201 20.5234C161.74 20.2285 161.218 20.081 160.635 20.081C160.048 20.081 159.525 20.2285 159.064 20.5234C158.603 20.8151 158.239 21.246 157.97 21.8161C157.705 22.3828 157.573 23.0805 157.573 23.9091C157.573 24.7377 157.705 25.437 157.97 26.0071C158.239 26.5739 158.603 27.0047 159.064 27.2997C159.525 27.5914 160.048 27.7372 160.635 27.7372C161.218 27.7372 161.74 27.5914 162.201 27.2997C162.665 27.0047 163.03 26.5739 163.295 26.0071C163.563 25.437 163.698 24.7377 163.698 23.9091ZM175.352 18.8182V29H173.94L168.765 21.5327H168.67V29H167.134V18.8182H168.556L173.737 26.2955H173.831V18.8182H175.352Z" fill="#121212"/>
<path d="M71.9723 52H69.4411L74.0497 38.9091H76.9773L81.5923 52H79.0611L75.5646 41.5938H75.4624L71.9723 52ZM72.0554 46.8672H78.9588V48.772H72.0554V46.8672ZM83.2143 55.6818V42.1818H85.4899V43.8054H85.6241C85.7434 43.5668 85.9118 43.3132 86.1291 43.0447C86.3464 42.772 86.6404 42.5398 87.0112 42.348C87.3819 42.152 87.8549 42.054 88.4302 42.054C89.1887 42.054 89.8727 42.2479 90.4821 42.6357C91.0957 43.0192 91.5815 43.5881 91.9395 44.3423C92.3017 45.0923 92.4828 46.0128 92.4828 47.1037C92.4828 48.1818 92.3059 49.098 91.9522 49.8523C91.5985 50.6065 91.117 51.1818 90.5076 51.5781C89.8983 51.9744 89.2079 52.1726 88.4366 52.1726C87.8741 52.1726 87.4075 52.0788 87.0368 51.8913C86.666 51.7038 86.3677 51.478 86.1419 51.2138C85.9203 50.9453 85.7477 50.6918 85.6241 50.4531H85.5282V55.6818H83.2143ZM85.4835 47.0909C85.4835 47.7259 85.573 48.282 85.752 48.7592C85.9352 49.2365 86.1973 49.6094 86.5382 49.8778C86.8833 50.142 87.301 50.2741 87.791 50.2741C88.3024 50.2741 88.7306 50.1378 89.0758 49.8651C89.421 49.5881 89.6809 49.2109 89.8556 48.7337C90.0346 48.2521 90.1241 47.7045 90.1241 47.0909C90.1241 46.4815 90.0368 45.9403 89.862 45.4673C89.6873 44.9943 89.4274 44.6236 89.0822 44.3551C88.737 44.0866 88.3066 43.9524 87.791 43.9524C87.2967 43.9524 86.877 44.0824 86.5318 44.3423C86.1866 44.6023 85.9245 44.9666 85.7456 45.4354C85.5708 45.9041 85.4835 46.456 85.4835 47.0909ZM94.4643 55.6818V42.1818H96.7399V43.8054H96.8741C96.9934 43.5668 97.1618 43.3132 97.3791 43.0447C97.5964 42.772 97.8904 42.5398 98.2612 42.348C98.6319 42.152 99.1049 42.054 99.6802 42.054C100.439 42.054 101.123 42.2479 101.732 42.6357C102.346 43.0192 102.831 43.5881 103.189 44.3423C103.552 45.0923 103.733 46.0128 103.733 47.1037C103.733 48.1818 103.556 49.098 103.202 49.8523C102.849 50.6065 102.367 51.1818 101.758 51.5781C101.148 51.9744 100.458 52.1726 99.6866 52.1726C99.1241 52.1726 98.6575 52.0788 98.2868 51.8913C97.916 51.7038 97.6177 51.478 97.3919 51.2138C97.1703 50.9453 96.9977 50.6918 96.8741 50.4531H96.7782V55.6818H94.4643ZM96.7335 47.0909C96.7335 47.7259 96.823 48.282 97.002 48.7592C97.1852 49.2365 97.4473 49.6094 97.7882 49.8778C98.1333 50.142 98.551 50.2741 99.041 50.2741C99.5524 50.2741 99.9806 50.1378 100.326 49.8651C100.671 49.5881 100.931 49.2109 101.106 48.7337C101.285 48.2521 101.374 47.7045 101.374 47.0909C101.374 46.4815 101.287 45.9403 101.112 45.4673C100.937 44.9943 100.677 44.6236 100.332 44.3551C99.987 44.0866 99.5566 43.9524 99.041 43.9524C98.5467 43.9524 98.127 44.0824 97.7818 44.3423C97.4366 44.6023 97.1745 44.9666 96.9956 45.4354C96.8208 45.9041 96.7335 46.456 96.7335 47.0909ZM117.396 42.5078C117.336 41.9496 117.085 41.5149 116.642 41.2038C116.203 40.8928 115.632 40.7372 114.928 40.7372C114.434 40.7372 114.01 40.8118 113.656 40.9609C113.303 41.1101 113.032 41.3125 112.845 41.5682C112.657 41.8239 112.561 42.1158 112.557 42.4439C112.557 42.7166 112.619 42.9531 112.742 43.1534C112.87 43.3537 113.043 43.5241 113.26 43.6648C113.477 43.8011 113.718 43.9162 113.982 44.0099C114.247 44.1037 114.513 44.1825 114.781 44.2464L116.009 44.5533C116.503 44.6683 116.978 44.8239 117.434 45.0199C117.894 45.2159 118.306 45.4631 118.668 45.7614C119.034 46.0597 119.324 46.4197 119.537 46.8416C119.75 47.2635 119.857 47.7578 119.857 48.3246C119.857 49.0916 119.661 49.767 119.269 50.3509C118.877 50.9304 118.31 51.3842 117.568 51.7124C116.831 52.0362 115.938 52.1982 114.89 52.1982C113.872 52.1982 112.987 52.0405 112.237 51.7251C111.492 51.4098 110.908 50.9496 110.486 50.3445C110.068 49.7393 109.843 49.0021 109.808 48.1328H112.142C112.176 48.5888 112.316 48.968 112.563 49.2706C112.811 49.5732 113.132 49.799 113.529 49.9482C113.929 50.0973 114.377 50.1719 114.871 50.1719C115.387 50.1719 115.838 50.0952 116.226 49.9418C116.618 49.7841 116.925 49.5668 117.146 49.2898C117.368 49.0085 117.481 48.6804 117.485 48.3054C117.481 47.9645 117.381 47.6832 117.185 47.4616C116.989 47.2358 116.714 47.0483 116.36 46.8991C116.011 46.7457 115.602 46.6094 115.133 46.4901L113.644 46.1065C112.566 45.8295 111.713 45.4098 111.087 44.8473C110.465 44.2805 110.154 43.5284 110.154 42.5909C110.154 41.8196 110.362 41.1442 110.78 40.5646C111.202 39.9851 111.775 39.5355 112.499 39.2159C113.224 38.892 114.044 38.7301 114.96 38.7301C115.889 38.7301 116.703 38.892 117.402 39.2159C118.105 39.5355 118.657 39.9808 119.058 40.5518C119.458 41.1186 119.665 41.7706 119.678 42.5078H117.396ZM126.771 42.1818V43.9716H121.127V42.1818H126.771ZM122.521 39.8295H124.835V49.0469C124.835 49.358 124.881 49.5966 124.975 49.7628C125.073 49.9247 125.201 50.0355 125.359 50.0952C125.516 50.1548 125.691 50.1847 125.883 50.1847C126.028 50.1847 126.16 50.174 126.279 50.1527C126.403 50.1314 126.496 50.1122 126.56 50.0952L126.95 51.9041C126.827 51.9467 126.65 51.9936 126.42 52.0447C126.194 52.0959 125.917 52.1257 125.589 52.1342C125.009 52.1513 124.487 52.0639 124.023 51.8722C123.558 51.6761 123.19 51.3736 122.917 50.9645C122.648 50.5554 122.516 50.044 122.521 49.4304V39.8295ZM132.884 52.1918C131.925 52.1918 131.094 51.9808 130.391 51.5589C129.688 51.1371 129.142 50.5469 128.754 49.7884C128.371 49.0298 128.179 48.1435 128.179 47.1293C128.179 46.1151 128.371 45.2266 128.754 44.4638C129.142 43.701 129.688 43.1087 130.391 42.6868C131.094 42.2649 131.925 42.054 132.884 42.054C133.843 42.054 134.673 42.2649 135.377 42.6868C136.08 43.1087 136.623 43.701 137.007 44.4638C137.394 45.2266 137.588 46.1151 137.588 47.1293C137.588 48.1435 137.394 49.0298 137.007 49.7884C136.623 50.5469 136.08 51.1371 135.377 51.5589C134.673 51.9808 133.843 52.1918 132.884 52.1918ZM132.896 50.3381C133.416 50.3381 133.851 50.1953 134.2 49.9098C134.55 49.62 134.81 49.2322 134.98 48.7464C135.155 48.2607 135.242 47.7195 135.242 47.1229C135.242 46.522 135.155 45.9787 134.98 45.4929C134.81 45.0028 134.55 44.6129 134.2 44.3232C133.851 44.0334 133.416 43.8885 132.896 43.8885C132.364 43.8885 131.921 44.0334 131.567 44.3232C131.218 44.6129 130.955 45.0028 130.781 45.4929C130.61 45.9787 130.525 46.522 130.525 47.1229C130.525 47.7195 130.61 48.2607 130.781 48.7464C130.955 49.2322 131.218 49.62 131.567 49.9098C131.921 50.1953 132.364 50.3381 132.896 50.3381ZM139.552 52V42.1818H141.796V43.8182H141.898C142.077 43.2514 142.384 42.8146 142.819 42.5078C143.257 42.1967 143.758 42.0412 144.321 42.0412C144.449 42.0412 144.591 42.0476 144.749 42.0604C144.911 42.0689 145.045 42.0838 145.152 42.1051V44.2337C145.054 44.1996 144.898 44.1697 144.685 44.1442C144.476 44.1143 144.274 44.0994 144.078 44.0994C143.656 44.0994 143.277 44.1911 142.94 44.3743C142.608 44.5533 142.346 44.8026 142.154 45.1222C141.962 45.4418 141.866 45.8104 141.866 46.228V52H139.552ZM150.631 52.1918C149.647 52.1918 148.797 51.9872 148.081 51.5781C147.369 51.1648 146.822 50.581 146.438 49.8267C146.055 49.0682 145.863 48.1754 145.863 47.1484C145.863 46.1385 146.055 45.2521 146.438 44.4893C146.826 43.7223 147.367 43.1257 148.062 42.6996C148.756 42.2692 149.572 42.054 150.51 42.054C151.115 42.054 151.686 42.152 152.223 42.348C152.764 42.5398 153.241 42.8381 153.655 43.2429C154.072 43.6477 154.4 44.1634 154.639 44.7898C154.878 45.4119 154.997 46.1534 154.997 47.0142V47.7237H146.949V46.1641H152.779C152.775 45.7209 152.679 45.3267 152.491 44.9815C152.304 44.6321 152.042 44.3572 151.705 44.157C151.373 43.9567 150.985 43.8565 150.542 43.8565C150.069 43.8565 149.653 43.9716 149.295 44.2017C148.937 44.4276 148.658 44.7259 148.458 45.0966C148.262 45.4631 148.162 45.8658 148.157 46.3047V47.6662C148.157 48.2372 148.262 48.7273 148.471 49.1364C148.68 49.5412 148.971 49.8523 149.346 50.0696C149.721 50.2827 150.16 50.3892 150.663 50.3892C151 50.3892 151.305 50.3423 151.577 50.2486C151.85 50.1506 152.086 50.0078 152.287 49.8203C152.487 49.6328 152.638 49.4006 152.741 49.1236L154.901 49.3665C154.765 49.9375 154.505 50.4361 154.121 50.8622C153.742 51.2841 153.256 51.6122 152.664 51.8466C152.072 52.0767 151.394 52.1918 150.631 52.1918Z" fill="#121212"/>
<g clip-path="url(#clip0_13938_1241)">
<path d="M47.1286 18.0022H26.8671C23.0724 18.0022 20 21.0745 20 24.8693V45.1351C20 48.9256 23.0724 51.9979 26.8671 51.9979H47.1329C50.9234 51.9979 54 48.9256 54 45.1308V24.8693C53.9958 21.0745 50.9234 18.0022 47.1286 18.0022Z" fill="url(#paint0_linear_13938_1241)"/>
<path d="M36.8527 25.8126L37.5411 24.6227C37.9661 23.8791 38.9137 23.6284 39.6574 24.0533C40.4011 24.4782 40.6517 25.4259 40.2268 26.1695L33.5934 37.6516H38.391C39.9463 37.6516 40.8174 39.4789 40.1418 40.7452H26.0761C25.2177 40.7452 24.5293 40.0568 24.5293 39.1984C24.5293 38.3401 25.2177 37.6516 26.0761 37.6516H30.0196L35.068 28.902L33.4915 26.1653C33.0666 25.4216 33.3172 24.4825 34.0609 24.0491C34.8046 23.6241 35.7437 23.8748 36.1772 24.6185L36.8527 25.8126Z" fill="white"/>
<path d="M30.8873 42.339L29.4 44.9184C28.9751 45.6621 28.0275 45.9128 27.2838 45.4879C26.5401 45.0629 26.2894 44.1153 26.7143 43.3716L27.8192 41.4594C29.0685 41.0727 30.0841 41.3701 30.8873 42.339Z" fill="white"/>
<path d="M43.6949 37.6603H47.7191C48.5775 37.6603 49.2659 38.3488 49.2659 39.2071C49.2659 40.0655 48.5775 40.7539 47.7191 40.7539H45.4839L46.9924 43.3716C47.4174 44.1153 47.1667 45.0544 46.423 45.4878C45.6793 45.9128 44.7402 45.6621 44.3068 44.9184C41.7656 40.5117 39.8576 37.2142 38.5913 35.0172C37.2951 32.7819 38.2216 30.5382 39.1352 29.7776C40.1509 31.5199 41.6679 34.1503 43.6949 37.6603Z" fill="white"/>
</g>
<defs>
<linearGradient id="paint0_linear_13938_1241" x1="37" y1="18.0022" x2="37" y2="51.9979" gradientUnits="userSpaceOnUse">
<stop stop-color="#00BFFC"/>
<stop offset="1" stop-color="#0073F6"/>
</linearGradient>
<clipPath id="clip0_13938_1241">
<rect width="34" height="34" fill="white" transform="translate(20 18)"/>
</clipPath>
</defs>
</svg>
