<svg width="22" height="22" viewBox="0 0 22 22" fill="none" xmlns="http://www.w3.org/2000/svg">
<g clip-path="url(#clip0_14232_8825)">
<path d="M21.33 1.28588C21.0784 0.835177 20.5089 0.677631 20.0609 0.929205L1.13574 11.5406C0.900736 11.6678 0.721016 11.8724 0.624254 12.1212C0.405856 12.6935 0.690607 13.3349 1.26291 13.5534L5.81933 15.3174L14.4705 7.9629C14.5562 7.88548 14.6668 7.84403 14.7802 7.84127C14.8907 7.84127 14.9958 7.87994 15.0815 7.94636C15.2916 8.11498 15.3276 8.42191 15.1617 8.63203L7.67455 18.002V20.0673V20.0728C7.67732 20.6922 8.18327 21.1926 8.80259 21.1898C9.08461 21.1871 9.35279 21.0793 9.55461 20.883L12.665 17.9744L18.2196 20.1171C18.3191 20.1558 18.4242 20.1807 18.5293 20.1918C19.1596 20.2498 19.7153 19.7853 19.7734 19.155L21.4461 1.83331C21.4655 1.64255 21.424 1.45173 21.33 1.28588Z" fill="#121212"/>
</g>
<defs>
<clipPath id="clip0_14232_8825">
<rect width="22" height="22" fill="white"/>
</clipPath>
</defs>
</svg>
