<svg width="134" height="56" viewBox="0 0 134 56" fill="none" xmlns="http://www.w3.org/2000/svg">
<circle cx="28" cy="28" r="28" fill="#AFFF1A"/>
<path fill-rule="evenodd" clip-rule="evenodd" d="M28 0C43.4643 0 56 12.5357 56 28C56 43.4643 43.4643 56 28 56C12.5357 56 0 43.4643 0 28C0 12.5357 12.5357 0 28 0ZM51.2068 18.4487C52.2501 33.2175 45.5891 41.4204 32.1075 41.7791C43.7082 39.6433 49.2329 32.6696 48.6818 20.8578C48.6818 20.8578 44.6497 20.8797 36.5846 20.9245C38.6362 34.5079 33.7905 41.7999 22.0455 42.8038C38.483 37.7143 32.6838 24.8374 27.0683 16.0384C38.611 12.8058 44.8378 11.0616 44.8378 11.0616C45.7871 13.6643 46.4148 16.1215 46.721 18.4213L51.2068 18.4487ZM39.7341 38.073L40.0797 36.4556C39.7625 36.1833 39.5252 35.8639 39.3688 35.4954C39.2125 35.1279 39.1195 34.6129 39.0889 33.9556C39.0583 33.2962 39.1206 32.5438 39.2748 31.6908L40.0217 31.7225C39.8883 32.6226 39.8446 33.3093 39.8916 33.7839C39.9594 34.4565 40.1201 34.8939 40.3717 35.0962L41.4554 30.0209C41.2126 29.7082 40.9884 29.2828 40.7807 28.7469C40.6254 28.3521 40.5444 27.8699 40.5357 27.3034C40.528 26.7325 40.5926 26.1278 40.7304 25.4815C40.9753 24.3332 41.346 23.4879 41.8392 22.9466C42.1695 22.5835 42.5719 22.4621 43.0444 22.5813L43.2095 21.8092L43.6108 22.0127L43.4457 22.7847C43.8197 23.0723 44.0712 23.5076 44.2036 24.0872C44.3731 24.8242 44.3774 25.7232 44.22 26.7796L43.4698 26.6855C43.566 26.025 43.5879 25.4891 43.5332 25.0856C43.4807 24.6788 43.3539 24.3671 43.1559 24.1451L42.1618 28.8005C42.4582 29.1811 42.6496 29.4577 42.736 29.6272C42.9 29.9542 43.0137 30.3107 43.0783 30.6957C43.145 31.0784 43.1658 31.5071 43.145 31.9817C43.1231 32.452 43.0575 32.9452 42.9492 33.4537C42.7108 34.5713 42.362 35.4276 41.9038 36.0269C41.4456 36.6229 40.9742 36.8263 40.4887 36.6415L40.1398 38.2775L39.7341 38.073ZM42.7557 23.922C42.4724 23.8838 42.21 24.0303 41.9716 24.3638C41.7321 24.6952 41.5538 25.137 41.4346 25.6947C41.3176 26.2459 41.2826 26.7413 41.3329 27.1765C41.3821 27.6129 41.5407 28.0044 41.8097 28.351L42.7557 23.922ZM40.7719 35.2985C41.0519 35.3554 41.3285 35.1925 41.6008 34.8108C41.8721 34.4324 42.0809 33.8966 42.2275 33.2109C42.3532 32.6226 42.3926 32.1239 42.3467 31.7029C42.2996 31.2862 42.1181 30.875 41.8032 30.4671L40.7719 35.2985ZM32.9998 18.3207L44.209 18.406C43.9597 17.015 43.5824 15.5704 43.0761 14.0733C43.0761 14.0733 39.2059 15.2062 31.4666 17.4732C33.3039 21.1356 34.8371 25.2026 34.8753 28.9503C35.362 25.5351 34.1612 21.6277 32.9998 18.3207ZM18.815 28.2056C18.2201 27.6041 16.2462 24.9074 14.795 22.5048L13.1229 23.8203C14.736 26.3815 16.7011 29.0105 16.7011 29.0105L15.0225 30.3326C14.0678 29.2751 11.4574 25.8588 10.7794 24.4568C10.7674 24.4382 8.60865 26.1223 8.37025 26.305C10.0325 28.8202 12.9141 32.7953 15.5933 34.9497C14.8967 35.4921 14.7316 35.5982 13.93 36.1537C12.1562 34.6916 9.98438 31.9872 8.42275 29.8897L6.64021 31.1637C11.3131 37.9745 18.3393 44.3665 26.5204 38.7903C29.1887 36.9717 31.0401 34.217 30.7919 31.4874C25.1086 30.2582 20.1262 23.7886 18.5438 18.5143L16.2976 20.2279C17.2785 23.0865 19.2043 25.5865 20.4456 26.9195L18.815 28.2056ZM14.0897 21.28C13.6894 20.5429 13.3821 19.8835 13.2378 19.3892L11.406 20.731C11.6477 21.2876 11.9955 21.9416 12.4001 22.6327L14.0897 21.28ZM17.6843 30.2079L15.9914 31.564C16.489 32.1862 16.9341 32.7155 17.2228 33.0348L18.9014 31.7127C18.9025 31.7127 18.3809 31.1014 17.6843 30.2079ZM7.56319 28.7141C7.1367 28.1192 5.77738 26.083 5.399 25.5373L3.72692 26.8178C4.06155 27.5855 5.4165 29.4588 5.82659 30.0439L7.56319 28.7141Z" fill="#104042"/>
<path d="M77.94 38.42C72.312 38.42 68.784 35.592 68.784 30.496H73.152C73.152 33.38 74.832 34.724 77.884 34.724C80.488 34.724 81.636 33.744 81.636 32.372C81.636 31.14 80.74 30.44 78.92 30.104L76.12 29.628C71.668 28.844 69.512 27.052 69.512 23.888C69.512 20.192 72.452 17.98 77.156 17.98C82.28 17.98 85.444 20.668 85.444 24.98H81.244C81.16 22.712 79.48 21.592 77.072 21.592C74.86 21.592 73.88 22.516 73.88 23.748C73.88 24.924 74.804 25.512 76.652 25.848L79.34 26.324C83.96 27.164 86.032 28.9 86.032 32.176C86.032 36.152 83.008 38.42 77.94 38.42ZM94.9905 38.448C90.3145 38.448 87.3465 35.424 87.3465 30.888C87.3465 26.324 90.3145 23.328 94.9905 23.328C99.6385 23.328 102.606 26.324 102.606 30.888C102.606 35.424 99.6385 38.448 94.9905 38.448ZM94.9905 34.948C97.0345 34.948 98.3785 33.352 98.3785 30.888C98.3785 28.424 97.0345 26.8 94.9905 26.8C92.9465 26.8 91.5745 28.424 91.5745 30.888C91.5745 33.352 92.9465 34.948 94.9905 34.948ZM108.404 38C105.66 38 104.232 36.6 104.232 33.968V18.4H108.376V34.528H110.028V38H108.404ZM117.275 38.448C113.495 38.448 110.835 35.592 110.835 30.888C110.835 26.156 113.495 23.328 117.275 23.328C119.095 23.328 120.635 24 121.699 25.26V18.4H125.843V38H122.091V36.068C120.999 37.608 119.319 38.448 117.275 38.448ZM118.423 34.948C120.467 34.948 121.811 33.352 121.811 30.888C121.811 28.424 120.467 26.8 118.423 26.8C116.379 26.8 115.063 28.424 115.063 30.888C115.063 33.352 116.379 34.948 118.423 34.948ZM128.295 38V23.776H132.439V38H128.295ZM130.395 22.208C128.967 22.208 127.903 21.228 127.903 19.884C127.903 18.568 128.967 17.532 130.395 17.532C131.823 17.532 132.887 18.568 132.887 19.884C132.887 21.228 131.823 22.208 130.395 22.208Z" fill="#121212"/>
</svg>
