<svg width="80" height="60" viewBox="0 0 80 60" fill="none" xmlns="http://www.w3.org/2000/svg">
<path d="M5 1H25.001C27.21 1.00019 29.001 2.79098 29.001 5V27.9287C29.001 28.9896 28.5793 30.0077 27.8291 30.7578L7.82812 50.7578C5.30822 53.2773 1 51.4922 1 47.9287V5C1 2.79086 2.79086 1 5 1Z" stroke="#104042" stroke-width="2"/>
<path d="M55 1H75.001C77.21 1.00019 79.001 2.79098 79.001 5V27.9287C79.001 28.9896 78.5793 30.0077 77.8291 30.7578L57.8281 50.7578C55.3082 53.2773 51 51.4922 51 47.9287V5C51 2.79086 52.7909 1 55 1Z" stroke="#104042" stroke-width="2"/>
</svg>
